<svg id="Layer_1" data-name="Layer 1" xmlns="http://www.w3.org/2000/svg" viewBox="0 0 144.27 41.34"><defs><style>.cls-1{font-size:23px;font-family:SourceSansPro-Light, Source Sans Pro;font-weight:300;letter-spacing:0.1em;}.cls-1,.cls-4{fill:#fff;}.cls-2{letter-spacing:0.11em;}.cls-3{letter-spacing:0.1em;}</style></defs><text class="cls-1" transform="translate(46.73 34.81)">LIBRA<tspan class="cls-2" x="65.66" y="0">R</tspan><tspan class="cls-3" x="80.64" y="0">Y</tspan></text><path id="path4" class="cls-4" d="M119.38,320.77c.94.26,1.33.83,1.33,2v5.08h-2.29v-5c0-.67-.29-1-1-1h-1v6h-2.28V312.88h3.75a2.44,2.44,0,0,1,2.78,2.77v2.82A2.13,2.13,0,0,1,119.38,320.77Zm-1-5a.75.75,0,0,0-.85-.86h-1.11v4.93h1c.64,0,.94-.3.94-.92Zm8.93-2.9,2.15,14.95h-2.26l-.3-2.35h-2.37l-.27,2.35h-2.11l2.13-14.95Zm-1.6,3-.92,7.55h1.86Zm7.56-3v14.93H131V312.88Zm8.9,14.93h-2.45l-2.22-7.32v7.32h-2.28V312.88h2.28v7.21l2.37-7.21h2.39l-2.56,7.34Zm1.37-14.93h5.08V315h-2.79v4.22h2.68v2.07h-2.68v4.5h2.83v2.07h-5.12Zm12,7.27a2.72,2.72,0,0,1,1.33,2.58v2.44a2.45,2.45,0,0,1-2.78,2.77h-1a2.42,2.42,0,0,1-2.75-2.75V322h2.22v3.07c0,.58.27.85.87.85h.3c.6,0,.87-.27.87-.85v-2.05a1.3,1.3,0,0,0-.64-1.21l-2.3-1.69a2.74,2.74,0,0,1-1.32-2.58v-2.05a2.45,2.45,0,0,1,2.77-2.77h1a2.43,2.43,0,0,1,2.75,2.75v2.71h-2.24v-2.62a.75.75,0,0,0-.85-.86h-.28a.75.75,0,0,0-.85.86v1.66a1.29,1.29,0,0,0,.64,1.22Zm11.54,0a2.73,2.73,0,0,1,1.32,2.58v2.44a2.45,2.45,0,0,1-2.77,2.77h-1a2.43,2.43,0,0,1-2.76-2.75V322h2.22v3.07c0,.58.28.85.88.85h.3c.59,0,.87-.27.87-.85v-2.05a1.3,1.3,0,0,0-.64-1.21l-2.3-1.69a2.73,2.73,0,0,1-1.33-2.58v-2.05a2.45,2.45,0,0,1,2.78-2.77h1a2.43,2.43,0,0,1,2.75,2.75v2.71h-2.24v-2.62a.75.75,0,0,0-.85-.86h-.28a.75.75,0,0,0-.86.86v1.66a1.31,1.31,0,0,0,.64,1.22Zm7.52,1.54h2.24v3.48a2.45,2.45,0,0,1-2.78,2.77H173a2.45,2.45,0,0,1-2.77-2.77v-9.65a2.45,2.45,0,0,1,2.77-2.77h1.11a2.41,2.41,0,0,1,2.75,2.75v3.05h-2.24v-2.92c0-.6-.27-.88-.85-.88h-.38a.77.77,0,0,0-.88.88v9.43c0,.6.28.87.88.87h.42c.58,0,.86-.27.86-.87Zm6.36-2.52h2.2v-6.29h2.28v14.93h-2.28v-6.57H181v6.57h-2.28V312.88H181Zm13.13,6a2.45,2.45,0,0,1-2.78,2.77h-1.21a2.45,2.45,0,0,1-2.78-2.77v-9.65a2.45,2.45,0,0,1,2.78-2.77h1.21a2.45,2.45,0,0,1,2.78,2.77Zm-2.29-9.54c0-.6-.27-.88-.85-.88h-.47c-.6,0-.87.28-.87.88v9.43c0,.6.27.87.87.87H191c.58,0,.85-.27.85-.87Zm10.89,9.54a2.45,2.45,0,0,1-2.77,2.77h-1.22a2.45,2.45,0,0,1-2.77-2.77v-9.65a2.45,2.45,0,0,1,2.77-2.77H200a2.45,2.45,0,0,1,2.77,2.77Zm-2.28-9.54c0-.6-.28-.88-.85-.88h-.47a.77.77,0,0,0-.88.88v9.43c0,.6.28.87.88.87h.47c.57,0,.85-.27.85-.87Zm4.17-2.75h2.28v12.86h2.52v2.07h-4.8Z" transform="translate(-65.17 -312.71)"/><path id="path8" class="cls-4" d="M101.8,345.87a.92.92,0,1,0,.9.92A.92.92,0,0,0,101.8,345.87Zm0,1.66a.74.74,0,0,1,0-1.48.77.77,0,0,1,.74.74A.73.73,0,0,1,101.78,347.53Z" transform="translate(-65.17 -312.71)"/><path id="path14" class="cls-4" d="M88.89,332.74l-12-18.88H66.32v8.06h2.3V338.5h-2.3v8.06H78.75V338.5h-2.3V327.68l12,18.88H99V338.5h-2.3V321.92H99v-8.06H86.58v8.06h2.31Z" transform="translate(-65.17 -312.71)"/><path id="path16" class="cls-4" d="M101.41,346.24h.33a.44.44,0,0,1,.25,0,.28.28,0,0,1,.14.26.45.45,0,0,1-.07.23s-.07,0-.14.09h0l.25.48H102l-.23-.46h-.14v.46h-.19Zm.28.48h.09a.16.16,0,0,0,.14-.18c0-.07,0-.12-.09-.14h-.23v.32Zm-2.67-34H85.43v10.36h2.31v5.71l-9.86-15.54-.32-.53H65.17v10.36h2.3v14.28h-2.3v10.36H79.91V337.35H77.6v-5.71l9.86,15.54.34.53h12.37V337.35h-2.3V323.07h2.3V312.71Zm.69,1.15v8.75h-2.3v15.2h2.3v9.44H88.06l-.21-.32L77.14,330.05v7.76h2.31v9.44H65.63v-9.44h2.3v-15.2h-2.3v-9.44H77.28l.21.32L88.2,330.37v-7.76H85.89v-9.44H99.71Z" transform="translate(-65.17 -312.71)"/></svg>